<?xml version="1.0" encoding="UTF-8" standalone="no"?>
<svg
   height="48px"
   viewBox="0 0 24 24"
   width="48px"
   fill="#000000"
   version="1.1"
   id="svg6"
   sodipodi:docname="maths-cbrt.svg"
   inkscape:version="1.2.2 (b0a8486541, 2022-12-01)"
   xmlns:inkscape="http://www.inkscape.org/namespaces/inkscape"
   xmlns:sodipodi="http://sodipodi.sourceforge.net/DTD/sodipodi-0.dtd"
   xmlns="http://www.w3.org/2000/svg"
   xmlns:svg="http://www.w3.org/2000/svg">
  <defs
     id="defs10">
    <inkscape:path-effect
       effect="fillet_chamfer"
       id="path-effect1659"
       is_visible="true"
       lpeversion="1"
       nodesatellites_param="F,0,0,1,0,0,0,1 @ F,0,0,1,0,0,0,1 @ F,0,0,1,0,0,0,1 @ F,0,0,1,0,0,0,1 @ F,0,0,1,0,0,0,1 @ F,0,0,1,0,0,0,1 @ F,0,0,1,0,0,0,1 @ F,0,0,1,0,0,0,1 @ F,0,0,1,0,0,0,1 @ F,0,0,1,0,0,0,1 @ F,0,0,1,0,0,0,1"
       unit="px"
       method="auto"
       mode="F"
       radius="0"
       chamfer_steps="1"
       flexible="false"
       use_knot_distance="true"
       apply_no_radius="true"
       apply_with_radius="true"
       only_selected="false"
       hide_knots="false" />
  </defs>
  <sodipodi:namedview
     id="namedview8"
     pagecolor="#505050"
     bordercolor="#ffffff"
     borderopacity="1"
     inkscape:showpageshadow="0"
     inkscape:pageopacity="0"
     inkscape:pagecheckerboard="1"
     inkscape:deskcolor="#505050"
     showgrid="false"
     inkscape:zoom="18.833334"
     inkscape:cx="20.601769"
     inkscape:cy="10.460177"
     inkscape:window-width="1920"
     inkscape:window-height="1026"
     inkscape:window-x="0"
     inkscape:window-y="32"
     inkscape:window-maximized="1"
     inkscape:current-layer="g1346" />
  <path
     d="M 0,0 H 24 V 24 H 0 Z"
     fill="none"
     id="path1187" />
  <path
     d="M0 0h24v24H0V0z"
     fill="none"
     id="path2" />
  <g
     id="g1346"
     transform="matrix(1.2639544,0,0,1.2639544,-2.9912907,-3.0152722)">
    <path
       id="path453"
       style="font-weight:bold;font-size:11.6337px;line-height:1.25;font-family:'URW Gothic';-inkscape-font-specification:'URW Gothic';letter-spacing:0px;word-spacing:0px;stroke-width:0.290842"
       d="M 10.549482 7.88822 L 9.2228852 16.089632 L 7.2565551 12.099025 L 4.9997181 13.193062 L 5.4540215 14.15807 L 6.5588749 13.611824 L 9.1765277 18.963024 L 9.8278504 18.963024 L 11.441091 9.000027 L 18.999679 9.000027 L 18.999679 7.88822 L 10.549482 7.88822 z " />
    <rect
       style="fill:#000000;fill-opacity:1;stroke:#000000;stroke-width:0.709719;stroke-dasharray:none;stroke-opacity:1;paint-order:normal;stop-color:#000000"
       id="rect1116"
       width="5.4554863"
       height="8.2514791"
       x="12.354859"
       y="10.393661"
       ry="0.6524871" />
    <g
       aria-label="3"
       id="text294"
       style="font-size:7.9117px;line-height:1.25;font-family:'URW Gothic';-inkscape-font-specification:'URW Gothic';letter-spacing:0px;word-spacing:0px;stroke-width:0.197792"
       transform="matrix(1.0339089,0,0,1.0339089,3.8952419,3.8679089)">
      <path
         d="m 2.4885063,3.9954385 h 0.1740574 c 0.7041413,0 1.1471965,0.3876733 1.1471965,0.9810508 0,0.5617306 -0.3876733,0.973139 -0.9177572,0.973139 -0.5142604,0 -0.8781986,-0.3560265 -0.9494039,-0.9098454 H 0.88243129 c 0.0632936,1.0997262 0.89402211,1.8750728 2.01748341,1.8750728 1.1313731,0 1.9621016,-0.8307285 1.9621016,-1.9621015 0,-0.7357881 -0.3006446,-1.2342252 -0.9098455,-1.5111347 0.3402031,-0.2452627 0.4905254,-0.553819 0.4905254,-1.0047859 0,-0.9019337 -0.6724945,-1.57442822 -1.5744283,-1.57442822 -0.4588785,0 -0.8781986,0.18196912 -1.1709315,0.49843712 C 1.4520737,1.6298403 1.3571333,1.8830147 1.3175748,2.3577166 h 1.0680795 c 0.04747,-0.3718498 0.1977924,-0.5300838 0.4905253,-0.5300838 0.3006446,0 0.5142605,0.2294392 0.5142605,0.5538189 0,0.2531744 -0.1186755,0.4351435 -0.3402031,0.5221722 -0.1344989,0.055382 -0.2769095,0.071205 -0.5617307,0.079117 z"
         style="font-weight:bold"
         id="path400" />
    </g>
  </g>
</svg>
