<?xml version="1.0" encoding="UTF-8" standalone="no"?>
<svg
   height="48px"
   viewBox="0 0 24 24"
   width="48px"
   fill="#000000"
   version="1.1"
   id="svg6"
   sodipodi:docname="sqrt.svg"
   inkscape:version="1.2.2 (b0a8486541, 2022-12-01)"
   xmlns:inkscape="http://www.inkscape.org/namespaces/inkscape"
   xmlns:sodipodi="http://sodipodi.sourceforge.net/DTD/sodipodi-0.dtd"
   xmlns="http://www.w3.org/2000/svg"
   xmlns:svg="http://www.w3.org/2000/svg">
  <defs
     id="defs10">
    <inkscape:path-effect
       effect="fillet_chamfer"
       id="path-effect1659"
       is_visible="true"
       lpeversion="1"
       nodesatellites_param="F,0,0,1,0,0,0,1 @ F,0,0,1,0,0,0,1 @ F,0,0,1,0,0,0,1 @ F,0,0,1,0,0,0,1 @ F,0,0,1,0,0,0,1 @ F,0,0,1,0,0,0,1 @ F,0,0,1,0,0,0,1 @ F,0,0,1,0,0,0,1 @ F,0,0,1,0,0,0,1 @ F,0,0,1,0,0,0,1 @ F,0,0,1,0,0,0,1"
       unit="px"
       method="auto"
       mode="F"
       radius="0"
       chamfer_steps="1"
       flexible="false"
       use_knot_distance="true"
       apply_no_radius="true"
       apply_with_radius="true"
       only_selected="false"
       hide_knots="false" />
  </defs>
  <sodipodi:namedview
     id="namedview8"
     pagecolor="#505050"
     bordercolor="#ffffff"
     borderopacity="1"
     inkscape:showpageshadow="0"
     inkscape:pageopacity="0"
     inkscape:pagecheckerboard="1"
     inkscape:deskcolor="#505050"
     showgrid="false"
     inkscape:zoom="18.833334"
     inkscape:cx="15.504424"
     inkscape:cy="9.6106193"
     inkscape:window-width="1920"
     inkscape:window-height="1026"
     inkscape:window-x="0"
     inkscape:window-y="32"
     inkscape:window-maximized="1"
     inkscape:current-layer="g1346" />
  <path
     d="M 0,0 H 24 V 24 H 0 Z"
     fill="none"
     id="path1187" />
  <path
     d="M0 0h24v24H0V0z"
     fill="none"
     id="path2" />
  <g
     id="g1346"
     transform="matrix(1.2639544,0,0,1.2639544,-2.9912907,-3.0152722)">
    <path
       id="path453"
       style="font-weight:bold;font-size:11.6337px;line-height:1.25;font-family:'URW Gothic';-inkscape-font-specification:'URW Gothic';letter-spacing:0px;word-spacing:0px;stroke-width:0.290842"
       d="M 10.549482 7.88822 L 9.2228852 16.089632 L 7.2565551 12.099025 L 4.9997181 13.193062 L 5.4540215 14.15807 L 6.5588749 13.611824 L 9.1765277 18.963024 L 9.8278504 18.963024 L 11.441091 9.000027 L 18.999679 9.000027 L 18.999679 7.88822 L 10.549482 7.88822 z " />
    <rect
       style="fill:#000000;fill-opacity:1;stroke:#000000;stroke-width:0.709719;stroke-dasharray:none;stroke-opacity:1;paint-order:normal;stop-color:#000000"
       id="rect1116"
       width="5.4554863"
       height="8.2514791"
       x="12.354859"
       y="10.393661"
       ry="0.6524871" />
    <g
       aria-label="2"
       id="text2164"
       style="font-size:9.15293px;line-height:1.25;font-family:'URW Gothic';-inkscape-font-specification:'URW Gothic';letter-spacing:0px;word-spacing:0px;stroke-width:0.228823"
       transform="matrix(0.90920192,0,0,0.90920192,9.8596108,3.8452554)">
      <path
         d="m -5.450918,7.8882198 h 4.3751006 V 6.7441036 h -2.6635027 l 1.3820925,-1.2539515 c 0.9885165,-0.8878342 1.308869,-1.4553159 1.308869,-2.2882326 0,-1.2539514 -0.9427518,-2.1967032 -2.2058562,-2.1967032 -0.787152,0 -1.5010805,0.3752701 -1.8855036,0.9885164 -0.256282,0.402729 -0.3569643,0.8146108 -0.3569643,1.4644689 h 1.1990339 c 0,-0.8054579 0.4210348,-1.3363278 1.052587,-1.3363278 0.5583287,0 0.9793635,0.4576465 0.9793635,1.0617399 0,0.4393406 -0.2196703,0.8329166 -0.7779991,1.3546337 L -5.450918,6.817327 Z"
         style="font-weight:bold"
         id="path2181" />
    </g>
  </g>
</svg>
