<?xml version="1.0" encoding="UTF-8" standalone="no"?>
<svg
   xmlns:dc="http://purl.org/dc/elements/1.1/"
   xmlns:cc="http://creativecommons.org/ns#"
   xmlns:rdf="http://www.w3.org/1999/02/22-rdf-syntax-ns#"
   xmlns:svg="http://www.w3.org/2000/svg"
   xmlns="http://www.w3.org/2000/svg"
   xmlns:sodipodi="http://sodipodi.sourceforge.net/DTD/sodipodi-0.dtd"
   xmlns:inkscape="http://www.inkscape.org/namespaces/inkscape"
   height="48px"
   viewBox="0 0 24 24"
   width="48px"
   fill="#000000"
   version="1.1"
   id="svg6"
   sodipodi:docname="signal-none.svg"
   inkscape:version="1.0.1 (3bc2e81, 2020-09-07)">
  <metadata
     id="metadata12">
    <rdf:RDF>
      <cc:Work
         rdf:about="">
        <dc:format>image/svg+xml</dc:format>
        <dc:type
           rdf:resource="http://purl.org/dc/dcmitype/StillImage" />
      </cc:Work>
    </rdf:RDF>
  </metadata>
  <defs
     id="defs10" />
  <sodipodi:namedview
     pagecolor="#505050"
     bordercolor="#ffffff"
     borderopacity="1"
     objecttolerance="10"
     gridtolerance="10"
     guidetolerance="10"
     inkscape:pageopacity="0"
     inkscape:pageshadow="2"
     inkscape:window-width="1920"
     inkscape:window-height="1026"
     id="namedview8"
     showgrid="false"
     inkscape:object-paths="true"
     inkscape:snap-midpoints="true"
     inkscape:snap-smooth-nodes="false"
     inkscape:snap-bbox="true"
     inkscape:snap-bbox-edge-midpoints="false"
     inkscape:bbox-nodes="false"
     inkscape:bbox-paths="false"
     inkscape:snap-bbox-midpoints="false"
     inkscape:snap-intersection-paths="true"
     inkscape:object-nodes="false"
     inkscape:zoom="3.3587572"
     inkscape:cx="22.593599"
     inkscape:cy="41.758896"
     inkscape:window-x="0"
     inkscape:window-y="32"
     inkscape:window-maximized="1"
     inkscape:current-layer="svg6" />
  <path
     d="M0 0h24v24H0V0z"
     fill="none"
     id="path2" />
  <path
     d="M18.5 4c.83 0 1.5.67 1.5 1.5v13c0 .83-.67 1.5-1.5 1.5s-1.5-.67-1.5-1.5v-13c0-.83.67-1.5 1.5-1.5zm-12 10c.83 0 1.5.67 1.5 1.5v3c0 .83-.67 1.5-1.5 1.5S5 19.33 5 18.5v-3c0-.83.67-1.5 1.5-1.5zm6-5c.83 0 1.5.67 1.5 1.5v8c0 .83-.67 1.5-1.5 1.5s-1.5-.67-1.5-1.5v-8c0-.83.67-1.5 1.5-1.5z"
     id="path4" />
  <g
     id="g2426"
     style="opacity:1"
     transform="matrix(1.3341634,0,0,1.3341634,-2.0916704,-1.6730537)">
    <path
       style="color:#000000;font-style:normal;font-variant:normal;font-weight:normal;font-stretch:normal;font-size:medium;line-height:normal;font-family:sans-serif;font-variant-ligatures:normal;font-variant-position:normal;font-variant-caps:normal;font-variant-numeric:normal;font-variant-alternates:normal;font-variant-east-asian:normal;font-feature-settings:normal;font-variation-settings:normal;text-indent:0;text-align:start;text-decoration:none;text-decoration-line:none;text-decoration-style:solid;text-decoration-color:#000000;letter-spacing:normal;word-spacing:normal;text-transform:none;writing-mode:lr-tb;direction:ltr;text-orientation:mixed;dominant-baseline:auto;baseline-shift:baseline;text-anchor:start;white-space:normal;shape-padding:0;shape-margin:0;inline-size:0;clip-rule:nonzero;display:inline;overflow:visible;visibility:visible;isolation:auto;mix-blend-mode:normal;color-interpolation:sRGB;color-interpolation-filters:linearRGB;solid-color:#000000;solid-opacity:1;vector-effect:none;fill:#000000;fill-opacity:1;fill-rule:nonzero;stroke:none;stroke-width:0.2643;stroke-linecap:butt;stroke-linejoin:miter;stroke-miterlimit:4;stroke-dasharray:none;stroke-dashoffset:0;stroke-opacity:1;color-rendering:auto;image-rendering:auto;shape-rendering:auto;text-rendering:auto;enable-background:accumulate;stop-color:#000000;stop-opacity:1"
       d="m 8.8557182,4.4637531 c -0.1030764,-0.1030764 -0.2695844,-0.1030764 -0.3726608,0 L 7.1906367,5.7535311 5.8982156,4.4611101 c -0.1030766,-0.1030765 -0.2695847,-0.1030765 -0.3726612,0 -0.1030766,0.1030766 -0.1030766,0.2695848 0,0.3726612 l 1.292421,1.2924211 -1.292421,1.2924209 c -0.1030766,0.1030764 -0.1030766,0.2695846 0,0.3726612 0.1030765,0.1030764 0.2695846,0.1030764 0.3726612,0 L 7.1906367,6.4988537 8.4830574,7.7912745 c 0.1030764,0.1030764 0.2695844,0.1030764 0.3726608,0 0.1030768,-0.1030765 0.1030768,-0.2695847 0,-0.3726612 L 7.5632978,6.1261925 8.8557182,4.8337714 c 0.1004339,-0.1004335 0.1004339,-0.2695847 0,-0.3700183 z"
       id="path2428" />
    <path
       style="color:#000000;font-style:normal;font-variant:normal;font-weight:normal;font-stretch:normal;font-size:medium;line-height:normal;font-family:sans-serif;font-variant-ligatures:normal;font-variant-position:normal;font-variant-caps:normal;font-variant-numeric:normal;font-variant-alternates:normal;font-variant-east-asian:normal;font-feature-settings:normal;font-variation-settings:normal;text-indent:0;text-align:start;text-decoration:none;text-decoration-line:none;text-decoration-style:solid;text-decoration-color:#000000;letter-spacing:normal;word-spacing:normal;text-transform:none;writing-mode:lr-tb;direction:ltr;text-orientation:mixed;dominant-baseline:auto;baseline-shift:baseline;text-anchor:start;white-space:normal;shape-padding:0;shape-margin:0;inline-size:0;clip-rule:nonzero;display:inline;overflow:visible;visibility:visible;isolation:auto;mix-blend-mode:normal;color-interpolation:sRGB;color-interpolation-filters:linearRGB;solid-color:#000000;solid-opacity:1;vector-effect:none;fill:#000000;fill-opacity:1;fill-rule:nonzero;stroke:none;stroke-width:0.2643;stroke-linecap:butt;stroke-linejoin:miter;stroke-miterlimit:4;stroke-dasharray:none;stroke-dashoffset:0;stroke-opacity:1;color-rendering:auto;image-rendering:auto;shape-rendering:auto;text-rendering:auto;enable-background:accumulate;stop-color:#000000;stop-opacity:1"
       d="m 5.4316406,4.3671875 c -0.1533926,0.1533926 -0.1533928,0.4071544 0,0.5605469 L 6.6308594,6.125 5.4316406,7.3242188 c -0.1533928,0.1533924 -0.1533926,0.4071542 0,0.5605468 0.1533926,0.1533925 0.4071542,0.1533924 0.5605469,0 L 7.1914062,6.6855469 8.3886719,7.8847656 c 0.1533925,0.1533925 0.4071544,0.1533925 0.5605469,0 0.1533929,-0.1533925 0.1533929,-0.4071543 0,-0.5605468 L 7.75,6.1269531 8.9492188,4.9277344 c 0.1528938,-0.1528933 0.1528938,-0.4037473 0,-0.5566406 -0.1528581,-0.1528581 -0.4050481,-0.1517928 -0.5585938,0 H 8.388675 L 7.1914062,5.5664062 5.9921875,4.3671875 c -0.1533926,-0.1533925 -0.4071543,-0.1533926 -0.5605469,0 z m 0.1875,0.1875 c 0.052761,-0.05276 0.1327863,-0.05276 0.1855469,0 L 7.1914062,5.9394531 8.5761719,4.5566406 c 0.05276,-0.05276 0.1327865,-0.05276 0.1855469,0 0.047974,0.047974 0.047974,0.1356201 0,0.1835938 L 7.3769531,6.1269531 8.7617188,7.5117188 c 0.052761,0.05276 0.052761,0.1327863 0,0.1855468 -0.05276,0.05276 -0.1327866,0.05276 -0.1855469,0 L 7.1914062,6.3125 5.8046875,7.6972656 c -0.05276,0.052761 -0.1327865,0.05276 -0.1855469,0 -0.05276,-0.05276 -0.05276,-0.1327865 0,-0.1855468 L 7.0039062,6.1269531 5.6191406,4.7402344 c -0.05276,-0.05276 -0.05276,-0.1327863 0,-0.1855469 z"
       id="path2430" />
  </g>
</svg>
