<?xml version="1.0" encoding="UTF-8" standalone="no"?>
<svg
   xmlns:dc="http://purl.org/dc/elements/1.1/"
   xmlns:cc="http://creativecommons.org/ns#"
   xmlns:rdf="http://www.w3.org/1999/02/22-rdf-syntax-ns#"
   xmlns:svg="http://www.w3.org/2000/svg"
   xmlns="http://www.w3.org/2000/svg"
   xmlns:sodipodi="http://sodipodi.sourceforge.net/DTD/sodipodi-0.dtd"
   xmlns:inkscape="http://www.inkscape.org/namespaces/inkscape"
   height="48px"
   viewBox="0 0 24 24"
   width="48px"
   fill="#000000"
   version="1.1"
   id="svg6"
   sodipodi:docname="wifi-1.svg"
   inkscape:version="1.0.1 (3bc2e81, 2020-09-07)">
  <metadata
     id="metadata12">
    <rdf:RDF>
      <cc:Work
         rdf:about="">
        <dc:format>image/svg+xml</dc:format>
        <dc:type
           rdf:resource="http://purl.org/dc/dcmitype/StillImage" />
      </cc:Work>
    </rdf:RDF>
  </metadata>
  <defs
     id="defs10" />
  <sodipodi:namedview
     pagecolor="#ffffff"
     bordercolor="#666666"
     borderopacity="1"
     objecttolerance="10"
     gridtolerance="10"
     guidetolerance="10"
     inkscape:pageopacity="0"
     inkscape:pageshadow="2"
     inkscape:window-width="1920"
     inkscape:window-height="1026"
     id="namedview8"
     showgrid="false"
     inkscape:zoom="17.854167"
     inkscape:cx="23.917065"
     inkscape:cy="24.29592"
     inkscape:window-x="0"
     inkscape:window-y="32"
     inkscape:window-maximized="1"
     inkscape:current-layer="svg6" />
  <path
     d="M0 0h24v24H0V0zm0 0h24v24H0V0z"
     fill="none"
     id="path2" />
  <path
     d="m 9.82,17.82 1.47,1.47 c 0.39,0.39 1.02,0.39 1.41,0 l 1.47,-1.47 c 0.47,-0.47 0.37,-1.28 -0.23,-1.59 -1.22,-0.63 -2.68,-0.63 -3.91,0 -0.57,0.31 -0.68,1.12 -0.21,1.59 z M 6.09,14.09 c 0.49,0.49 1.26,0.54 1.83,0.13 2.44,-1.73 5.72,-1.73 8.16,0 0.57,0.4 1.34,0.36 1.83,-0.13 l 0.01,-0.01 c 0.6,-0.6 0.56,-1.62 -0.13,-2.11 -3.44,-2.49 -8.13,-2.49 -11.58,0 -0.69,0.5 -0.73,1.51 -0.12,2.12 z"
     id="path4"
     sodipodi:nodetypes="ssssccssccssccs" />
</svg>
