<?xml version="1.0" encoding="UTF-8" standalone="no"?>
<svg
   xmlns:dc="http://purl.org/dc/elements/1.1/"
   xmlns:cc="http://creativecommons.org/ns#"
   xmlns:rdf="http://www.w3.org/1999/02/22-rdf-syntax-ns#"
   xmlns:svg="http://www.w3.org/2000/svg"
   xmlns="http://www.w3.org/2000/svg"
   xmlns:sodipodi="http://sodipodi.sourceforge.net/DTD/sodipodi-0.dtd"
   xmlns:inkscape="http://www.inkscape.org/namespaces/inkscape"
   width="512"
   height="410"
   viewBox="0 0 135.46666 108.47916"
   version="1.1"
   id="svg8"
   inkscape:version="1.0.2 (1.0.2+r75+1)"
   sodipodi:docname="logo.svg">
  <defs
     id="defs2">
    <inkscape:path-effect
       effect="fillet_chamfer"
       id="path-effect1205"
       is_visible="true"
       lpeversion="1"
       satellites_param="F,0,0,1,0,16,0,1 @ F,0,0,1,0,16,0,1 @ F,0,0,1,0,16,0,1 @ F,0,0,1,0,16,0,1 @ F,0,0,1,0,16,0,1 @ F,0,0,1,0,16,0,1 @ F,0,0,1,0,16,0,1 @ F,0,0,1,0,16,0,1 @ F,0,0,1,0,16,0,1 @ F,0,0,1,0,16,0,1 @ F,0,0,1,0,16,0,1 @ F,0,0,1,0,16,0,1 @ F,0,0,1,0,16,0,1 @ F,0,0,1,0,16,0,1 @ F,0,0,1,0,16,0,1 @ F,0,0,1,0,16,0,1"
       unit="px"
       method="auto"
       mode="F"
       radius="16"
       chamfer_steps="1"
       flexible="false"
       use_knot_distance="true"
       apply_no_radius="true"
       apply_with_radius="true"
       only_selected="false"
       hide_knots="false" />
  </defs>
  <sodipodi:namedview
     id="base"
     pagecolor="#ffffff"
     bordercolor="#666666"
     borderopacity="1.0"
     inkscape:pageopacity="0.0"
     inkscape:pageshadow="2"
     inkscape:zoom="0.61585771"
     inkscape:cx="197.72281"
     inkscape:cy="228.51777"
     inkscape:document-units="px"
     inkscape:current-layer="layer1"
     inkscape:document-rotation="0"
     showgrid="false"
     units="px"
     inkscape:snap-bbox="true"
     inkscape:bbox-paths="true"
     showguides="true"
     inkscape:guide-bbox="true"
     inkscape:bbox-nodes="true"
     inkscape:snap-bbox-midpoints="false"
     inkscape:snap-page="true"
     inkscape:window-width="1200"
     inkscape:window-height="742"
     inkscape:window-x="0"
     inkscape:window-y="32"
     inkscape:window-maximized="1" />
  <metadata
     id="metadata5">
    <rdf:RDF>
      <cc:Work
         rdf:about="">
        <dc:format>image/svg+xml</dc:format>
        <dc:type
           rdf:resource="http://purl.org/dc/dcmitype/StillImage" />
        <dc:title></dc:title>
      </cc:Work>
    </rdf:RDF>
  </metadata>
  <g
     inkscape:label="Layer 1"
     inkscape:groupmode="layer"
     id="layer1">
    <g
       id="g1218"
       transform="matrix(1.6,0,0,1.6,-11.940978,-53.605405)">
      <path
         id="rect835"
         style="mix-blend-mode:normal;fill:#5091f7;fill-opacity:1;stroke-width:2.35438;stop-color:#000000"
         d="m 28.207031,142.75195 v 32 192 a 16,16 45 0 0 16,16 h 32 a 16,16 135 0 0 16,-16 v -160 a 16,16 135 0 1 15.999999,-16 h 32 a 16,16 45 0 1 16,16 v 96 64 a 16,16 45 0 0 16,16 h 160 a 16,16 135 0 0 16,-16 v -32 -96 a 16,16 45 0 0 -16,-16 h -32 a 16,16 135 0 0 -16,16 v 64 a 16,16 135 0 1 -16,16 h -32 a 16,16 45 0 1 -16,-16 v -160 a 16,16 45 0 0 -16,-16 h -96 -63.999999 a 16,16 135 0 0 -16,16 z"
         transform="scale(0.26458332)"
         inkscape:path-effect="#path-effect1205"
         inkscape:original-d="m 28.207031,126.75195 v 64 192 h 64 v -192 h 63.999999 v 128 64 h 192 v -64 -96 h -64 v 96 h -64 v -192 H 92.207031 Z" />
      <rect
         style="mix-blend-mode:normal;fill:#5091f7;fill-opacity:1;stroke-width:0.539472;stop-color:#000000"
         id="rect835-3-7-5"
         width="50.799999"
         height="16.933332"
         x="7.4631577"
         y="67.403053" />
      <circle
         style="fill:#96b8f7;fill-opacity:1;stroke-width:0.553038;stop-color:#000000"
         id="path1207"
         cx="83.663109"
         cy="42.003117"
         r="8.4666662" />
    </g>
  </g>
</svg>
